<mxfile host="app.diagrams.net" modified="2023-11-26T04:35:13.843Z" agent="Mozilla/5.0 (Windows NT 10.0; Win64; x64) AppleWebKit/537.36 (KHTML, like Gecko) Chrome/119.0.0.0 Safari/537.36 Edg/119.0.0.0" etag="A4tEghr3gdj9nXzOjVio" version="22.1.4" type="github">
  <diagram id="C5RBs43oDa-KdzZeNtuy" name="Page-1">
    <mxGraphModel dx="940" dy="878" grid="1" gridSize="1" guides="1" tooltips="1" connect="1" arrows="1" fold="1" page="1" pageScale="1" pageWidth="827" pageHeight="1169" math="0" shadow="0">
      <root>
        <mxCell id="WIyWlLk6GJQsqaUBKTNV-0" />
        <mxCell id="WIyWlLk6GJQsqaUBKTNV-1" parent="WIyWlLk6GJQsqaUBKTNV-0" />
        <mxCell id="D4McF2_vvJxb5yZmUDUs-18" value="" style="edgeStyle=orthogonalEdgeStyle;rounded=0;orthogonalLoop=1;jettySize=auto;html=1;entryX=0.5;entryY=0;entryDx=0;entryDy=0;" edge="1" parent="WIyWlLk6GJQsqaUBKTNV-1" source="D4McF2_vvJxb5yZmUDUs-1" target="D4McF2_vvJxb5yZmUDUs-10">
          <mxGeometry relative="1" as="geometry">
            <mxPoint x="188.5" y="170" as="targetPoint" />
          </mxGeometry>
        </mxCell>
        <mxCell id="D4McF2_vvJxb5yZmUDUs-1" value="开始" style="rounded=1;whiteSpace=wrap;html=1;fontSize=12;glass=0;strokeWidth=1;shadow=0;fillColor=#eeeeee;strokeColor=#36393d;" vertex="1" parent="WIyWlLk6GJQsqaUBKTNV-1">
          <mxGeometry x="128.5" y="30" width="120" height="40" as="geometry" />
        </mxCell>
        <mxCell id="D4McF2_vvJxb5yZmUDUs-38" value="" style="edgeStyle=orthogonalEdgeStyle;rounded=0;orthogonalLoop=1;jettySize=auto;html=1;" edge="1" parent="WIyWlLk6GJQsqaUBKTNV-1" source="D4McF2_vvJxb5yZmUDUs-7" target="D4McF2_vvJxb5yZmUDUs-36">
          <mxGeometry relative="1" as="geometry" />
        </mxCell>
        <mxCell id="D4McF2_vvJxb5yZmUDUs-7" value="定义字典" style="rounded=0;whiteSpace=wrap;html=1;fillColor=#dae8fc;strokeColor=#6c8ebf;" vertex="1" parent="WIyWlLk6GJQsqaUBKTNV-1">
          <mxGeometry x="126" y="484" width="125" height="40" as="geometry" />
        </mxCell>
        <mxCell id="D4McF2_vvJxb5yZmUDUs-8" value="" style="edgeStyle=orthogonalEdgeStyle;rounded=0;orthogonalLoop=1;jettySize=auto;html=1;entryX=0.5;entryY=0;entryDx=0;entryDy=0;" edge="1" parent="WIyWlLk6GJQsqaUBKTNV-1" source="D4McF2_vvJxb5yZmUDUs-10" target="D4McF2_vvJxb5yZmUDUs-24">
          <mxGeometry relative="1" as="geometry">
            <mxPoint x="189" y="288" as="targetPoint" />
          </mxGeometry>
        </mxCell>
        <mxCell id="D4McF2_vvJxb5yZmUDUs-19" value="" style="edgeStyle=orthogonalEdgeStyle;rounded=0;orthogonalLoop=1;jettySize=auto;html=1;" edge="1" parent="WIyWlLk6GJQsqaUBKTNV-1" source="D4McF2_vvJxb5yZmUDUs-10" target="D4McF2_vvJxb5yZmUDUs-16">
          <mxGeometry relative="1" as="geometry" />
        </mxCell>
        <mxCell id="D4McF2_vvJxb5yZmUDUs-10" value="解析后的数据&lt;br&gt;是否为列表？" style="rhombus;whiteSpace=wrap;html=1;shadow=0;fontFamily=Helvetica;fontSize=12;align=center;strokeWidth=1;spacing=6;spacingTop=-4;fillColor=#d5e8d4;strokeColor=#82b366;" vertex="1" parent="WIyWlLk6GJQsqaUBKTNV-1">
          <mxGeometry x="138.38" y="115" width="100.25" height="70" as="geometry" />
        </mxCell>
        <mxCell id="D4McF2_vvJxb5yZmUDUs-12" value="结束" style="rounded=1;whiteSpace=wrap;html=1;fontSize=12;glass=0;strokeWidth=1;shadow=0;fillColor=#eeeeee;strokeColor=#36393d;" vertex="1" parent="WIyWlLk6GJQsqaUBKTNV-1">
          <mxGeometry x="128.5" y="965" width="120" height="40" as="geometry" />
        </mxCell>
        <mxCell id="D4McF2_vvJxb5yZmUDUs-15" value="&lt;font style=&quot;font-size: 10px;&quot;&gt;N&lt;/font&gt;" style="text;html=1;strokeColor=none;fillColor=default;align=center;verticalAlign=middle;whiteSpace=wrap;rounded=0;" vertex="1" parent="WIyWlLk6GJQsqaUBKTNV-1">
          <mxGeometry x="179" y="205" width="20" height="18" as="geometry" />
        </mxCell>
        <mxCell id="D4McF2_vvJxb5yZmUDUs-22" value="" style="edgeStyle=orthogonalEdgeStyle;rounded=0;orthogonalLoop=1;jettySize=auto;html=1;" edge="1" parent="WIyWlLk6GJQsqaUBKTNV-1" source="D4McF2_vvJxb5yZmUDUs-16" target="D4McF2_vvJxb5yZmUDUs-21">
          <mxGeometry relative="1" as="geometry" />
        </mxCell>
        <mxCell id="D4McF2_vvJxb5yZmUDUs-16" value="获得列表第二个数据" style="rounded=0;whiteSpace=wrap;html=1;fillColor=#dae8fc;strokeColor=#6c8ebf;" vertex="1" parent="WIyWlLk6GJQsqaUBKTNV-1">
          <mxGeometry x="300" y="130" width="125" height="40" as="geometry" />
        </mxCell>
        <mxCell id="D4McF2_vvJxb5yZmUDUs-20" value="&lt;font style=&quot;font-size: 10px;&quot;&gt;Y&lt;/font&gt;" style="text;html=1;strokeColor=none;fillColor=default;align=center;verticalAlign=middle;whiteSpace=wrap;rounded=0;" vertex="1" parent="WIyWlLk6GJQsqaUBKTNV-1">
          <mxGeometry x="255.5" y="143" width="20" height="18" as="geometry" />
        </mxCell>
        <mxCell id="D4McF2_vvJxb5yZmUDUs-27" value="" style="edgeStyle=orthogonalEdgeStyle;rounded=0;orthogonalLoop=1;jettySize=auto;html=1;" edge="1" parent="WIyWlLk6GJQsqaUBKTNV-1" source="D4McF2_vvJxb5yZmUDUs-21">
          <mxGeometry relative="1" as="geometry">
            <mxPoint x="189" y="232" as="targetPoint" />
            <Array as="points">
              <mxPoint x="189" y="233" />
            </Array>
          </mxGeometry>
        </mxCell>
        <mxCell id="D4McF2_vvJxb5yZmUDUs-21" value="去除第二个&lt;br&gt;数据的/和？符" style="rounded=0;whiteSpace=wrap;html=1;fillColor=#dae8fc;strokeColor=#6c8ebf;" vertex="1" parent="WIyWlLk6GJQsqaUBKTNV-1">
          <mxGeometry x="300" y="213" width="125" height="40" as="geometry" />
        </mxCell>
        <mxCell id="D4McF2_vvJxb5yZmUDUs-33" value="" style="edgeStyle=orthogonalEdgeStyle;rounded=0;orthogonalLoop=1;jettySize=auto;html=1;" edge="1" parent="WIyWlLk6GJQsqaUBKTNV-1" source="D4McF2_vvJxb5yZmUDUs-23" target="D4McF2_vvJxb5yZmUDUs-7">
          <mxGeometry relative="1" as="geometry" />
        </mxCell>
        <mxCell id="D4McF2_vvJxb5yZmUDUs-23" value="将解析后的&lt;br&gt;数据以#拆分" style="rounded=0;whiteSpace=wrap;html=1;fillColor=#dae8fc;strokeColor=#6c8ebf;" vertex="1" parent="WIyWlLk6GJQsqaUBKTNV-1">
          <mxGeometry x="126" y="398" width="125" height="40" as="geometry" />
        </mxCell>
        <mxCell id="D4McF2_vvJxb5yZmUDUs-25" value="" style="edgeStyle=orthogonalEdgeStyle;rounded=0;orthogonalLoop=1;jettySize=auto;html=1;" edge="1" parent="WIyWlLk6GJQsqaUBKTNV-1" source="D4McF2_vvJxb5yZmUDUs-24" target="D4McF2_vvJxb5yZmUDUs-23">
          <mxGeometry relative="1" as="geometry" />
        </mxCell>
        <mxCell id="D4McF2_vvJxb5yZmUDUs-29" style="edgeStyle=orthogonalEdgeStyle;rounded=0;orthogonalLoop=1;jettySize=auto;html=1;entryX=0;entryY=0.5;entryDx=0;entryDy=0;" edge="1" parent="WIyWlLk6GJQsqaUBKTNV-1" source="D4McF2_vvJxb5yZmUDUs-24" target="D4McF2_vvJxb5yZmUDUs-28">
          <mxGeometry relative="1" as="geometry" />
        </mxCell>
        <mxCell id="D4McF2_vvJxb5yZmUDUs-24" value="解析后的数据&lt;br&gt;中是否含有favicon.ico" style="rhombus;whiteSpace=wrap;html=1;shadow=0;fontFamily=Helvetica;fontSize=12;align=center;strokeWidth=1;spacing=6;spacingTop=-4;fillColor=#d5e8d4;strokeColor=#82b366;" vertex="1" parent="WIyWlLk6GJQsqaUBKTNV-1">
          <mxGeometry x="138.38" y="280" width="100.25" height="70" as="geometry" />
        </mxCell>
        <mxCell id="D4McF2_vvJxb5yZmUDUs-26" value="&lt;font style=&quot;font-size: 10px;&quot;&gt;N&lt;/font&gt;" style="text;html=1;strokeColor=none;fillColor=default;align=center;verticalAlign=middle;whiteSpace=wrap;rounded=0;" vertex="1" parent="WIyWlLk6GJQsqaUBKTNV-1">
          <mxGeometry x="180" y="362" width="20" height="18" as="geometry" />
        </mxCell>
        <mxCell id="D4McF2_vvJxb5yZmUDUs-32" style="edgeStyle=orthogonalEdgeStyle;rounded=0;orthogonalLoop=1;jettySize=auto;html=1;exitX=1;exitY=0.5;exitDx=0;exitDy=0;" edge="1" parent="WIyWlLk6GJQsqaUBKTNV-1" source="D4McF2_vvJxb5yZmUDUs-28">
          <mxGeometry relative="1" as="geometry">
            <mxPoint x="437" y="313" as="sourcePoint" />
            <mxPoint x="189" y="96" as="targetPoint" />
            <Array as="points">
              <mxPoint x="446" y="315" />
              <mxPoint x="446" y="96" />
              <mxPoint x="216" y="96" />
            </Array>
          </mxGeometry>
        </mxCell>
        <mxCell id="D4McF2_vvJxb5yZmUDUs-28" value="关闭连接" style="rounded=0;whiteSpace=wrap;html=1;fillColor=#dae8fc;strokeColor=#6c8ebf;" vertex="1" parent="WIyWlLk6GJQsqaUBKTNV-1">
          <mxGeometry x="301" y="295" width="125" height="40" as="geometry" />
        </mxCell>
        <mxCell id="D4McF2_vvJxb5yZmUDUs-30" value="&lt;font style=&quot;font-size: 10px;&quot;&gt;Y&lt;/font&gt;" style="text;html=1;strokeColor=none;fillColor=default;align=center;verticalAlign=middle;whiteSpace=wrap;rounded=0;" vertex="1" parent="WIyWlLk6GJQsqaUBKTNV-1">
          <mxGeometry x="252" y="306" width="20" height="18" as="geometry" />
        </mxCell>
        <mxCell id="D4McF2_vvJxb5yZmUDUs-50" value="" style="edgeStyle=orthogonalEdgeStyle;rounded=0;orthogonalLoop=1;jettySize=auto;html=1;" edge="1" parent="WIyWlLk6GJQsqaUBKTNV-1" source="D4McF2_vvJxb5yZmUDUs-34" target="D4McF2_vvJxb5yZmUDUs-45">
          <mxGeometry relative="1" as="geometry" />
        </mxCell>
        <mxCell id="D4McF2_vvJxb5yZmUDUs-34" value="获得第一个元素&lt;br&gt;以&amp;amp;继续拆分" style="rounded=0;whiteSpace=wrap;html=1;fillColor=#dae8fc;strokeColor=#6c8ebf;" vertex="1" parent="WIyWlLk6GJQsqaUBKTNV-1">
          <mxGeometry x="126" y="724" width="125" height="40" as="geometry" />
        </mxCell>
        <mxCell id="D4McF2_vvJxb5yZmUDUs-39" value="" style="edgeStyle=orthogonalEdgeStyle;rounded=0;orthogonalLoop=1;jettySize=auto;html=1;" edge="1" parent="WIyWlLk6GJQsqaUBKTNV-1" source="D4McF2_vvJxb5yZmUDUs-36" target="D4McF2_vvJxb5yZmUDUs-34">
          <mxGeometry relative="1" as="geometry" />
        </mxCell>
        <mxCell id="D4McF2_vvJxb5yZmUDUs-42" value="" style="edgeStyle=orthogonalEdgeStyle;rounded=0;orthogonalLoop=1;jettySize=auto;html=1;" edge="1" parent="WIyWlLk6GJQsqaUBKTNV-1" source="D4McF2_vvJxb5yZmUDUs-36" target="D4McF2_vvJxb5yZmUDUs-41">
          <mxGeometry relative="1" as="geometry" />
        </mxCell>
        <mxCell id="D4McF2_vvJxb5yZmUDUs-36" value="按#拆分的列&lt;br&gt;表长度是否为1" style="rhombus;whiteSpace=wrap;html=1;shadow=0;fontFamily=Helvetica;fontSize=12;align=center;strokeWidth=1;spacing=6;spacingTop=-4;fillColor=#d5e8d4;strokeColor=#82b366;" vertex="1" parent="WIyWlLk6GJQsqaUBKTNV-1">
          <mxGeometry x="138.38" y="565" width="100.25" height="70" as="geometry" />
        </mxCell>
        <mxCell id="D4McF2_vvJxb5yZmUDUs-40" value="&lt;font style=&quot;font-size: 10px;&quot;&gt;N&lt;/font&gt;" style="text;html=1;strokeColor=none;fillColor=default;align=center;verticalAlign=middle;whiteSpace=wrap;rounded=0;" vertex="1" parent="WIyWlLk6GJQsqaUBKTNV-1">
          <mxGeometry x="179" y="641" width="20" height="18" as="geometry" />
        </mxCell>
        <mxCell id="D4McF2_vvJxb5yZmUDUs-44" value="" style="edgeStyle=orthogonalEdgeStyle;rounded=0;orthogonalLoop=1;jettySize=auto;html=1;" edge="1" parent="WIyWlLk6GJQsqaUBKTNV-1" source="D4McF2_vvJxb5yZmUDUs-41" target="D4McF2_vvJxb5yZmUDUs-43">
          <mxGeometry relative="1" as="geometry" />
        </mxCell>
        <mxCell id="D4McF2_vvJxb5yZmUDUs-41" value="获得第二个元素&lt;br&gt;以&amp;amp;继续拆分" style="rounded=0;whiteSpace=wrap;html=1;fillColor=#dae8fc;strokeColor=#6c8ebf;" vertex="1" parent="WIyWlLk6GJQsqaUBKTNV-1">
          <mxGeometry x="300" y="580" width="125" height="40" as="geometry" />
        </mxCell>
        <mxCell id="D4McF2_vvJxb5yZmUDUs-49" style="edgeStyle=orthogonalEdgeStyle;rounded=0;orthogonalLoop=1;jettySize=auto;html=1;" edge="1" parent="WIyWlLk6GJQsqaUBKTNV-1" source="D4McF2_vvJxb5yZmUDUs-43">
          <mxGeometry relative="1" as="geometry">
            <mxPoint x="189" y="681" as="targetPoint" />
          </mxGeometry>
        </mxCell>
        <mxCell id="D4McF2_vvJxb5yZmUDUs-43" value="将配置参数封装为字典" style="rounded=0;whiteSpace=wrap;html=1;fillColor=#dae8fc;strokeColor=#6c8ebf;" vertex="1" parent="WIyWlLk6GJQsqaUBKTNV-1">
          <mxGeometry x="300" y="662" width="125" height="40" as="geometry" />
        </mxCell>
        <mxCell id="D4McF2_vvJxb5yZmUDUs-52" value="" style="edgeStyle=orthogonalEdgeStyle;rounded=0;orthogonalLoop=1;jettySize=auto;html=1;" edge="1" parent="WIyWlLk6GJQsqaUBKTNV-1" source="D4McF2_vvJxb5yZmUDUs-45" target="D4McF2_vvJxb5yZmUDUs-51">
          <mxGeometry relative="1" as="geometry" />
        </mxCell>
        <mxCell id="D4McF2_vvJxb5yZmUDUs-45" value="将功能参数封装为字典" style="rounded=0;whiteSpace=wrap;html=1;fillColor=#dae8fc;strokeColor=#6c8ebf;" vertex="1" parent="WIyWlLk6GJQsqaUBKTNV-1">
          <mxGeometry x="126" y="803" width="125" height="40" as="geometry" />
        </mxCell>
        <mxCell id="D4McF2_vvJxb5yZmUDUs-53" value="" style="edgeStyle=orthogonalEdgeStyle;rounded=0;orthogonalLoop=1;jettySize=auto;html=1;" edge="1" parent="WIyWlLk6GJQsqaUBKTNV-1" source="D4McF2_vvJxb5yZmUDUs-51" target="D4McF2_vvJxb5yZmUDUs-12">
          <mxGeometry relative="1" as="geometry" />
        </mxCell>
        <mxCell id="D4McF2_vvJxb5yZmUDUs-51" value="返回两个字典" style="rounded=0;whiteSpace=wrap;html=1;fillColor=#dae8fc;strokeColor=#6c8ebf;" vertex="1" parent="WIyWlLk6GJQsqaUBKTNV-1">
          <mxGeometry x="126" y="886" width="125" height="40" as="geometry" />
        </mxCell>
      </root>
    </mxGraphModel>
  </diagram>
</mxfile>
